<svg id="Layer_1" enable-background="new 0 0 512.002 512.002" height="512" viewBox="0 0 512.002 512.002" width="512" xmlns="http://www.w3.org/2000/svg"><g clip-rule="evenodd" fill-rule="evenodd"><path d="m366.001 223.25v-28.748c0-26.654-3.248-40.015-21.499-61.917l-28.5-34.203v-31.088c5.967-3.464 9.999-9.91 9.999-17.292v-30.004c0-11.027-8.97-19.998-19.998-19.998h-100.004c-11.027 0-19.998 8.971-19.998 19.998v30.004c0 7.382 4.032 13.827 9.999 17.292v31.088l-28.5 34.203c-18.25 21.903-21.499 35.264-21.499 61.917v28.748c0 15.975 3.356 28.97 6.601 41.537 3.034 11.747 5.899 22.842 5.899 35.963 0 25.184-2.313 43.694-4.992 65.126-3.519 28.164-7.508 60.085-7.508 116.125 0 16.542 13.458 30 30 30h160c16.542 0 30-13.458 30-30 0-56.04-3.989-87.961-7.509-116.125-2.678-21.433-4.991-39.942-4.991-65.126 0-13.122 2.865-24.217 5.898-35.963 3.247-12.567 6.602-25.562 6.602-41.537zm-194.034 36.536c-3.068-11.88-5.966-23.102-5.966-36.536v-18.748h180v18.748c0 13.435-2.897 24.656-5.966 36.536-3.213 12.439-6.534 25.302-6.534 40.964 0 24.568 2.16 43.583 4.59 63.149h-164.18c2.43-19.567 4.59-38.581 4.59-63.149 0-15.662-3.322-28.524-6.534-40.964zm134.034-239.788.002 30.002-100.002.002-.004-30.002zm-123.136 125.389 30.817-36.984c1.498-1.797 2.317-4.062 2.317-6.401v-32.002h80.003v32.002c0 2.339.82 4.604 2.317 6.401l30.817 36.984c12.506 15.008 15.902 23.189 16.667 39.115h-179.605c.765-15.926 4.161-24.107 16.667-39.115zm153.136 346.615h-160c-5.514 0-10-4.486-10-10 0-44.827 2.615-73.903 5.454-98.102h169.093c2.839 24.199 5.454 53.275 5.454 98.102-.001 5.514-4.487 10-10.001 10z"/><path d="m256.001 315.867c13.703.052 25-11.659 25-25.339 0-16.521-19.124-37.994-25-37.994s-25 21.473-25 37.994c0 13.68 11.297 25.392 25 25.339z"/></g></svg>